<?xml version="1.0" encoding="utf-8"?>
<!-- Generator: Adobe Illustrator 19.2.1, SVG Export Plug-In . SVG Version: 6.00 Build 0)  -->
<svg version="1.1" id="Слой_1" xmlns="http://www.w3.org/2000/svg" xmlns:xlink="http://www.w3.org/1999/xlink" x="0px" y="0px"
	 viewBox="0 0 150 150" style="enable-background:new 0 0 150 150;" xml:space="preserve">
<style type="text/css">
	.st0{fill:none;stroke:#FFFFFF;stroke-width:3;stroke-miterlimit:10;stroke-dasharray:100.3243,300.973;}
	.st1{fill:#FFFFFF;}
</style>
<g>
	<circle class="st1" cx="75" cy="75" r="63.9"/>
</g>
<g>
	<g>
		<path class="st0" d="M104,31.4H83.2c-9.3,0-15.7,2-21.4,6.8c-4.5,3.9-7.2,9.6-7.2,15.2c0,8.7,6.6,17.8,18.8,17.8
			c1.2,0,2.5-0.1,3.6-0.2l-0.2,0.4c-0.5,1.2-1,2.3-1,4c0,3.4,1.6,5.5,3.2,7.5l0.2,0.3h-0.4c-5,0.3-14.4,1-21.3,5.2
			c-8.1,4.8-8.7,11.8-8.7,13.9c0,8.1,7.5,16.3,24.4,16.3c19.6,0,29.8-10.8,29.8-21.5c0-7.9-4.6-11.8-9.5-15.9L89.4,78
			c-1.3-1.1-2.9-2.4-2.9-4.8s1.6-4,3-5.4l0.1-0.1c4.5-3.5,9.5-7.5,9.5-16.2s-5.4-13.2-8-15.3H98c0.1,0,0.2,0,0.2-0.1l5.9-3.7
			c0.2-0.1,0.2-0.3,0.2-0.5C104.3,31.6,104.2,31.4,104,31.4z M78.8,113.8c-11.9,0-20-5.6-20-13.9c0-5.4,3.3-9.4,9.7-11.7
			c5.2-1.7,11.9-1.8,11.9-1.8c1.1,0,1.7,0,2.6,0.1c8.4,5.9,12.4,9.1,12.4,15C95.4,109.1,89,113.8,78.8,113.8z M78.7,68.1
			c-10,0-14.2-13.2-14.2-20.2c0-3.6,0.8-6.3,2.5-8.4c1.8-2.3,4.9-3.7,7.9-3.7c9.2,0,14.3,12.4,14.3,20.9c0,1.3,0,5.4-2.8,8.3
			C84.5,66.8,81.4,68.1,78.7,68.1z"/>
		<path class="st0" d="M133.1,72.1h-11V61.2c0-0.2-0.2-0.5-0.4-0.5H117c-0.2,0-0.5,0.2-0.5,0.5v10.9h-10.9c-0.2,0-0.4,0.2-0.4,0.5
			v4.8c0,0.2,0.2,0.5,0.4,0.5h10.9v11c0,0.2,0.2,0.4,0.5,0.4h4.7c0.2,0,0.4-0.2,0.4-0.4v-11h11c0.2,0,0.5-0.2,0.5-0.5v-4.8
			C133.5,72.3,133.3,72.1,133.1,72.1z"/>
	</g>
</g>
</svg>
