<?xml version="1.0" encoding="utf-8"?>
<!-- Generator: Adobe Illustrator 19.2.1, SVG Export Plug-In . SVG Version: 6.00 Build 0)  -->
<svg version="1.1" id="Слой_1" xmlns="http://www.w3.org/2000/svg" xmlns:xlink="http://www.w3.org/1999/xlink" x="0px" y="0px"
	 viewBox="0 0 150 150" style="enable-background:new 0 0 150 150;" xml:space="preserve">
<style type="text/css">
	.st0{fill:#FFFFFF;}
	.st1{fill:none;stroke:#FFFFFF;stroke-width:3;stroke-miterlimit:10;stroke-dasharray:100.3243,300.973;}
</style>
<path class="st0" d="M100.4,28.3l-12.5,0c-14,0-23.1,9.3-23.1,23.7v10.9H52.3c-1.1,0-2,0.9-2,2v15.8c0,1.1,0.9,2,2,2h12.5v39.9
	c0,1.1,0.9,2,2,2h16.4c1.1,0,2-0.9,2-2V82.5h14.7c1.1,0,2-0.9,2-2l0-15.8c0-0.5-0.2-1-0.6-1.4s-0.9-0.6-1.4-0.6H85.1v-9.2
	c0-4.4,1.1-6.7,6.8-6.7l8.4,0c1.1,0,2-0.9,2-2V30.2C102.3,29.1,101.5,28.3,100.4,28.3z"/>
<g>
	<circle class="st1" cx="75" cy="75" r="63.9" />
</g>
</svg>
