<?xml version="1.0" encoding="utf-8"?>
<!-- Generator: Adobe Illustrator 19.2.1, SVG Export Plug-In . SVG Version: 6.00 Build 0)  -->
<svg version="1.1" id="Слой_1" xmlns="http://www.w3.org/2000/svg" xmlns:xlink="http://www.w3.org/1999/xlink" x="0px" y="0px"
	 viewBox="0 0 150 150" style="enable-background:new 0 0 150 150;" xml:space="preserve">
<style type="text/css">
	.st0{fill:#FFFFFF;}
	.st1{fill:none;stroke:#FFFFFF;stroke-width:3;stroke-miterlimit:10;stroke-dasharray:100.3243,300.973;}
</style>
<g>
	<g>
		<path class="st0" d="M120.9,46.5c-3.4,1.5-7,2.5-10.8,3c3.9-2.3,6.9-6,8.3-10.4c-3.6,2.2-7.7,3.7-12,4.6
			c-3.4-3.7-8.3-5.9-13.7-5.9c-10.4,0-18.8,8.4-18.8,18.8c0,1.5,0.2,2.9,0.5,4.3C58.7,60,44.8,52.6,35.5,41.2
			c-1.6,2.8-2.5,6-2.5,9.5c0,6.5,3.3,12.3,8.4,15.7c-3.1-0.1-6-1-8.5-2.4v0.2c0,9.1,6.5,16.7,15.1,18.5c-1.6,0.4-3.2,0.7-5,0.7
			c-1.2,0-2.4-0.1-3.5-0.3C41.8,90.4,48.7,95.9,57,96c-6.4,5-14.6,8-23.4,8c-1.5,0-3-0.1-4.5-0.3c8.3,5.4,18.2,8.5,28.9,8.5
			c34.6,0,53.6-28.7,53.6-53.6l-0.1-2.4C115.2,53.6,118.4,50.3,120.9,46.5z"/>
	</g>
</g>
<g>
	<circle class="st1" cx="75" cy="75" r="63.9"/>
</g>
</svg>
