<?xml version="1.0" encoding="utf-8"?>
<!-- Generator: Adobe Illustrator 19.2.1, SVG Export Plug-In . SVG Version: 6.00 Build 0)  -->
<svg version="1.1" id="Слой_1" xmlns="http://www.w3.org/2000/svg" xmlns:xlink="http://www.w3.org/1999/xlink" x="0px" y="0px"
	 viewBox="0 0 150 150" style="enable-background:new 0 0 150 150;" xml:space="preserve">
<style type="text/css">
	.st0{fill:#FFFFFF;}
	.st1{fill:none;stroke:#FFFFFF;stroke-width:3;stroke-miterlimit:10;stroke-dasharray:100.3243,300.973;}
</style>
<g>
	<path id="LinkedIn" class="st0" d="M118,84.3v31.8H99.6V86.4c0-7.5-2.7-12.5-9.3-12.5c-5.1,0-8.1,3.4-9.5,6.7
		c-0.5,1.2-0.6,2.8-0.6,4.5v31H61.7c0,0,0.2-50.3,0-55.5h18.4v7.9c0,0.1-0.1,0.1-0.1,0.2h0.1v-0.2c2.5-3.8,6.8-9.2,16.6-9.2
		C108.9,59.3,118,67.3,118,84.3z M42.4,33.9C36.1,33.9,32,38,32,43.5c0,5.3,4,9.6,10.2,9.6h0.1c6.4,0,10.4-4.3,10.4-9.6
		C52.6,38,48.7,33.9,42.4,33.9z M33.1,116.1h18.4V60.6H33.1V116.1z"/>
</g>
<g>
	<circle class="st1" cx="75" cy="75" r="63.9"/>
</g>
</svg>
